<svg width="13" height="9" viewBox="0 0 13 9" fill="none" xmlns="http://www.w3.org/2000/svg">
<path d="M3.55215 8.16C5.72215 8.16 6.61215 7.08 6.61215 4.53C6.61215 1.99 5.72215 0.92 3.55215 0.92C1.39215 0.92 0.492149 1.99 0.492149 4.53C0.492149 7.08 1.39215 8.16 3.55215 8.16ZM3.55215 7.42C2.09215 7.42 1.35215 6.88 1.35215 4.53C1.35215 2.19 2.09215 1.66 3.55215 1.66C5.01215 1.66 5.75215 2.2 5.75215 4.53C5.75215 6.87 5.01215 7.42 3.55215 7.42ZM9.63176 6.79H10.3818V5.12H12.1718V4.38H10.3818V2.79H9.63176V4.38H7.83176V5.12H9.63176V6.79Z" fill="white"/>
</svg>
