<svg width="171" height="63" viewBox="0 0 171 63" fill="none" xmlns="http://www.w3.org/2000/svg">
<path d="M11.4306 7.64V7.44C12.7506 6.96 13.5306 5.92 13.5306 4.62C13.5306 2.2 12.0906 1.04 8.31063 1.04H1.01063L0.990625 15H8.65063C12.7906 15 13.8306 13.1 13.8306 10.9C13.8306 9.12 12.8506 8.06 11.4306 7.64ZM9.65063 5.16C9.65063 6.06 9.25063 6.54 8.15063 6.54H4.87063V3.76H8.15063C9.25063 3.76 9.65063 4.2 9.65063 5.16ZM8.27063 12.22H4.87063V9.2H8.27063C9.51063 9.2 9.83063 9.86 9.83063 10.72C9.83063 11.58 9.49062 12.22 8.27063 12.22ZM15.405 15.14C19.225 15.14 19.825 13 20.145 7.28C20.165 6.92 20.205 5.06 20.245 4.04H24.765V15H28.685V1.04H16.725C16.685 2.98 16.685 5.1 16.565 7.28C16.365 11 16.085 11.98 14.305 11.98H14.065V15.1C14.285 15.1 14.705 15.14 15.405 15.14ZM29.5298 15H33.6298L34.3898 12.42H40.4698L41.2298 15H45.3698L40.7098 1.04H34.1898L29.5298 15ZM35.2098 9.66L36.0698 6.78C36.6298 4.9 36.7498 4.38 37.1698 2.84H37.7298C37.7498 2.92 38.3498 5.24 38.8098 6.78L39.6498 9.66H35.2098ZM44.5678 18.22H48.0078V15H58.0678V18.22H61.5078L61.5878 14.08C61.6078 13.06 61.6478 12.64 61.6878 11.9H59.4878V1.04H47.5478C47.5078 2.98 47.5278 5.38 47.3678 7.4C47.0678 11.24 46.6678 11.98 44.8678 11.98H44.5678V18.22ZM49.9478 11.9C50.5878 10.98 50.8678 8.52 50.9278 7.46C51.0278 5.74 51.0478 4.72 51.0878 4.04H55.5678V11.9H49.9478ZM62.7906 15H69.5306L71.8506 5.7C72.0906 4.72 72.3106 3.64 72.4906 2.84H72.9706V15H76.8106V1.04H70.0706L67.7506 10.34C67.5106 11.28 67.3106 12.3 67.1106 13.2H66.6306V1.04H62.7906V15ZM89.6572 7.64V7.44C90.9772 6.96 91.7572 5.92 91.7572 4.62C91.7572 2.2 90.3172 1.04 86.5372 1.04H79.2372L79.2172 15H86.8772C91.0172 15 92.0572 13.1 92.0572 10.9C92.0572 9.12 91.0772 8.06 89.6572 7.64ZM87.8772 5.16C87.8772 6.06 87.4772 6.54 86.3772 6.54H83.0972V3.76H86.3772C87.4772 3.76 87.8772 4.2 87.8772 5.16ZM86.4972 12.22H83.0972V9.2H86.4972C87.7372 9.2 88.0572 9.86 88.0572 10.72C88.0572 11.58 87.7172 12.22 86.4972 12.22ZM100.932 15.26C106.072 15.26 109.172 13.06 109.172 8C109.172 2.96 106.072 0.739999 100.932 0.739999C95.7516 0.739999 92.6916 2.96 92.6916 8C92.6916 13.06 95.7516 15.26 100.932 15.26ZM100.932 12.02C97.7316 12.02 96.8116 10.36 96.8116 8C96.8116 5.6 97.7316 4 100.932 4C104.152 4 105.072 5.6 105.072 8C105.072 10.36 104.152 12.02 100.932 12.02ZM117.845 15.28C122.305 15.28 125.125 13.66 125.845 10.04H121.645C121.125 11.26 120.025 12.04 117.845 12.04C114.645 12.04 113.745 10.44 113.745 8.04C113.745 5.66 114.645 4.04 117.845 4.04C120.025 4.04 121.145 4.74 121.645 6H125.825C125.085 2.42 122.285 0.799999 117.845 0.799999C112.685 0.799999 109.645 3.02 109.645 8.04C109.645 13.08 112.685 15.28 117.845 15.28ZM130.726 15H134.626V4.32H139.266V1.04H126.086V4.32H130.726V15ZM147.457 15.26C152.597 15.26 155.697 13.06 155.697 8C155.697 2.96 152.597 0.739999 147.457 0.739999C142.277 0.739999 139.217 2.96 139.217 8C139.217 13.06 142.277 15.26 147.457 15.26ZM147.457 12.02C144.257 12.02 143.337 10.36 143.337 8C143.337 5.6 144.257 4 147.457 4C150.677 4 151.597 5.6 151.597 8C151.597 10.36 150.677 12.02 147.457 12.02ZM165.211 7.62L170.591 1.04H166.251L161.971 6.32H161.011V1.04H157.131V15H161.011V9.38H161.851L166.131 15H170.851L165.211 7.62ZM50.3668 24.624L46.7788 25.92V27.06L49.9948 25.884V33H51.3508V24.624H50.3668ZM56.686 33H58.174L62.53 24.648L56.002 24.624V25.776H60.49L56.686 33ZM73.5987 33H76.1427L78.8307 27.42C79.0827 26.892 79.4667 26.028 79.7187 25.44H80.0547V33H81.4347V24.624H78.8907L76.2987 30.132C76.0587 30.66 75.5547 31.68 75.3147 32.184H74.9787V24.624H73.5987V33ZM93.7365 24.588C91.0965 24.588 89.5125 25.656 89.2605 28.164H88.0365V24.624H86.6445V33H88.0365V29.352H89.2485C89.4045 32.064 91.0005 33.192 93.7365 33.192C96.6525 33.192 98.2845 31.92 98.2845 28.884C98.2845 25.86 96.6405 24.588 93.7365 24.588ZM93.7365 31.98C91.3365 31.98 90.6165 30.816 90.6165 28.884C90.6165 26.928 91.3245 25.8 93.7365 25.8C96.1725 25.8 96.8685 26.928 96.8685 28.884C96.8685 30.816 96.1725 31.98 93.7365 31.98ZM109.092 24.624V28.128H104.328V24.624H102.936V33H104.328V29.328H109.092V33H110.472V24.624H109.092ZM118.221 24.624C116.313 24.624 115.245 25.452 115.245 27.288C115.245 28.956 116.109 29.688 117.669 29.88L115.593 33H117.153L119.121 29.928H121.377V33H122.769V24.624H118.221ZM118.305 28.788C117.021 28.788 116.637 28.224 116.637 27.288C116.637 26.352 117.021 25.776 118.305 25.776H121.377V28.788H118.305ZM32.2987 38.624V42.128H27.5347V38.624H26.1427V47H27.5347V43.328H32.2987V47H33.6787V38.624H32.2987ZM37.9118 47H39.4118L40.0718 45.152H44.4758L45.1358 47H46.6358L43.5158 38.624H41.0318L37.9118 47ZM40.4678 44.024L41.2358 41.9C41.5478 41.012 41.8958 40.088 42.0878 39.44H42.4718C42.6278 39.884 42.9638 40.892 43.3238 41.9L44.0798 44.024H40.4678ZM55.3509 41.78H52.2669V39.848H57.5949V38.624H50.8749V47H55.1829C57.2229 47 58.3269 46.292 58.3269 44.396C58.3269 42.56 57.2829 41.78 55.3509 41.78ZM55.2789 45.872H52.2669V42.908H55.2789C56.5509 42.908 56.9229 43.472 56.9229 44.396C56.9229 45.32 56.5509 45.872 55.2789 45.872ZM69.0594 39.86V38.624H62.8074V47H69.0594V45.764H64.1994V43.328H68.9634V42.152H64.1994V39.86H69.0594ZM78.5993 38.624H73.9313V47H75.3233V43.952H78.3833C80.4233 43.952 81.5753 43.268 81.5753 41.288C81.5753 39.44 80.5073 38.624 78.5993 38.624ZM78.5033 42.788H75.3233V39.776H78.5033C79.7873 39.776 80.1593 40.352 80.1593 41.288C80.1593 42.224 79.7873 42.788 78.5033 42.788ZM92.3033 39.86V38.624H86.0513V47H92.3033V45.764H87.4433V43.328H92.2073V42.152H87.4433V39.86H92.3033ZM104.291 42.584L107.975 38.624H106.439L103.151 42.104H102.683V38.624H101.327V42.104H100.859L97.5712 38.624H96.0352L99.7192 42.584L95.9992 47H97.6072L100.847 43.232H101.327V47H102.683V43.232H103.151L106.403 47H108.011L104.291 42.584ZM118.193 38.624V42.128H113.429V38.624H112.037V47H113.429V43.328H118.193V47H119.573V38.624H118.193ZM123.806 47H125.306L125.966 45.152H130.37L131.03 47H132.53L129.41 38.624H126.926L123.806 47ZM126.362 44.024L127.13 41.9C127.442 41.012 127.79 40.088 127.982 39.44H128.366C128.522 39.884 128.858 40.892 129.218 41.9L129.974 44.024H126.362ZM139.314 38.624C137.406 38.624 136.338 39.452 136.338 41.288C136.338 42.956 137.202 43.688 138.762 43.88L136.686 47H138.246L140.214 43.928H142.47V47H143.862V38.624H139.314ZM139.398 42.788C138.114 42.788 137.73 42.224 137.73 41.288C137.73 40.352 138.114 39.776 139.398 39.776H142.47V42.788H139.398ZM34.1563 59.812V52.624H32.7643V59.812H28.1323V52.624H26.7403V61H33.7843V62.932H35.0323L35.0803 61.108C35.1043 60.172 35.1163 60.16 35.1403 59.812H34.1563ZM45.9326 53.86V52.624H39.6806V61H45.9326V59.764H41.0726V57.328H45.8366V56.152H41.0726V53.86H45.9326ZM55.0165 61.168C57.6565 61.168 59.3845 60.244 59.7325 58.024H58.2325C57.9325 59.368 56.8765 59.932 55.0165 59.932C52.4965 59.932 51.7525 58.792 51.7525 56.824C51.7525 54.868 52.4965 53.716 55.0165 53.716C56.8765 53.716 57.9325 54.256 58.2325 55.6H59.7205C59.4565 53.512 57.6925 52.48 55.0165 52.48C51.9205 52.48 50.2525 53.812 50.2525 56.824C50.2525 59.836 51.9205 61.168 55.0165 61.168ZM63.4174 61H64.9174L65.5774 59.152H69.9814L70.6414 61H72.1414L69.0214 52.624H66.5374L63.4174 61ZM65.9734 58.024L66.7414 55.9C67.0534 55.012 67.4014 54.088 67.5934 53.44H67.9774C68.1334 53.884 68.4694 54.892 68.8294 55.9L69.5854 58.024H65.9734ZM81.0485 52.624H76.3805V61H77.7725V57.952H80.8325C82.8725 57.952 84.0245 57.268 84.0245 55.288C84.0245 53.44 82.9565 52.624 81.0485 52.624ZM80.9525 56.788H77.7725V53.776H80.9525C82.2365 53.776 82.6085 54.352 82.6085 55.288C82.6085 56.224 82.2365 56.788 80.9525 56.788ZM94.7525 53.86V52.624H88.5005V61H94.7525V59.764H89.8925V57.328H94.6565V56.152H89.8925V53.86H94.7525ZM105.732 56.56V56.464C106.488 56.2 106.872 55.504 106.872 54.712C106.872 53.26 106.032 52.624 104.088 52.624H99.6244V61H103.944C106.428 61 107.064 59.992 107.064 58.528C107.064 57.58 106.584 56.848 105.732 56.56ZM104.244 53.752C105.156 53.752 105.48 54.148 105.48 54.916C105.48 55.672 105.156 56.068 104.244 56.068H101.016V53.752H104.244ZM104.22 59.86H101.016V57.136H104.196C105.3 57.136 105.636 57.664 105.636 58.492C105.636 59.248 105.372 59.86 104.22 59.86ZM111.768 61H114.312L117 55.42C117.252 54.892 117.636 54.028 117.888 53.44H118.224V61H119.604V52.624H117.06L114.468 58.132C114.228 58.66 113.724 59.68 113.484 60.184H113.148V52.624H111.768V61ZM129.878 61H131.27V52.624H129.878V55.012C129.878 56.572 129.158 57.028 127.634 57.028C126.026 57.028 125.354 56.44 125.354 54.868V52.624H123.998V54.796C123.998 57.22 124.97 58.168 127.394 58.168C128.498 58.168 129.35 57.928 129.878 57.376V61ZM135.505 61H137.005L137.665 59.152H142.069L142.729 61H144.229L141.109 52.624H138.625L135.505 61ZM138.061 58.024L138.829 55.9C139.141 55.012 139.489 54.088 139.681 53.44H140.065C140.221 53.884 140.557 54.892 140.917 55.9L141.673 58.024H138.061Z" fill="white"/>
</svg>
