<svg width="240" height="104" viewBox="0 0 240 104" fill="none" xmlns="http://www.w3.org/2000/svg">
<path d="M108.402 35.5413L119.98 3.15988H121.131V35.5413H133.066V21.327H135.023C135.679 22.637 136.887 24.3951 140.386 27.5551L149.248 35.5413H165.361L145.335 17.1558L164.153 -0.00012207H149.778L139.811 9.06623C137.849 10.6512 136.214 12.6027 135 14.8117H133.032V0.0228822H107.861L100.311 21.2696C99.3474 23.845 98.826 26.5645 98.7689 29.3132H96.5822C96.5934 26.5693 96.1139 23.8454 95.1665 21.2696L87.605 0.0688206H74.3694L87.0295 35.5873L108.402 35.5413ZM184.029 51.709V61.212C184.029 64.6018 185.675 66.4633 189.784 66.4633H197.334V76.426H186.17C176.433 76.426 172.059 72.8178 172.059 63.9698V51.709H151.631C151.631 49.3074 148.684 47.0092 142.55 47.0092C137.405 47.0092 134.344 47.9975 134.344 50.2841C134.344 52.1457 135.875 52.8007 139.155 53.1339L147.591 53.8923C159.192 54.984 162.357 59.1436 162.357 65.2568C162.357 74.7598 152.724 77.8968 142.792 77.8968C128.566 77.8968 123.64 72.7604 121.891 67.9572H120.245C116.85 75.162 108.103 77.7934 99.2292 77.7934C85.2226 77.7934 75.9232 72.7604 75.9232 58.5576C75.8752 56.221 76.2095 53.8922 76.9129 51.6631H63.4472V76.426H51.3856V51.709H-177V42.861H54.6657V41.7119C53.3588 41.054 52.2708 40.032 51.5335 38.7697C50.7961 37.5074 50.4409 36.0587 50.5109 34.5991C50.5109 28.4859 56.0928 25.5327 62.6531 25.5327H76.8899V35.4838H66.8194C64.4025 35.4838 62.3308 36.8972 62.3308 39.1954C62.3308 41.4936 64.4025 42.8035 66.8194 42.8035H76.8899V48.2617H78.4207C81.8734 42.1486 89.2508 39.4137 98.5502 39.4137C112.672 39.4137 121.097 46.6185 121.097 56.2364V61.1546H87.8352C87.8352 66.8426 92.1051 69.1292 99.2178 69.1292C102.832 69.1292 107.873 68.3709 109.185 65.4177H133.481C133.481 67.3826 136.22 70.1175 142.688 70.1175C148.592 70.1175 151.216 68.8075 151.216 66.6702C151.216 64.5329 149.248 64.0388 146.187 63.717L136.45 62.8437C130.097 62.2921 123.537 59.4539 123.537 51.6975C123.537 42.7346 131.846 39.3448 142.136 39.3448C152.091 39.3448 158.444 41.5396 161.621 47.986H162.933V42.8495H175.075V41.8613C171.91 40.5514 170.92 37.7131 170.92 33.5534V29.5201H182.855V38.1497C182.855 41.5396 184.927 42.8495 187.332 42.8495H425V51.6976L184.029 51.709ZM87.8352 54.5932H109.07C109.07 50.445 104.144 47.9285 98.5618 47.9285C92.2087 47.8826 87.8352 50.3991 87.8352 54.5932ZM77.9488 88.9856C78.1201 87.9599 78.4955 86.979 79.053 86.1007C79.6104 85.2224 80.3386 84.4646 81.1944 83.8721C83.2569 82.58 85.6682 81.9541 88.0999 82.0795C91.2304 82.0795 93.5323 82.7038 95.0054 83.9525C95.7809 84.6166 96.392 85.4506 96.7913 86.3894C97.1906 87.3283 97.3672 88.3466 97.3073 89.3648C97.3598 90.628 97.0947 91.8842 96.5361 93.0189C96.0365 93.9258 95.2957 94.6774 94.3954 95.1906C93.1875 95.8636 91.9152 96.4141 90.5974 96.8339L90.0104 97.0177L89.435 97.2246L86.2124 98.3736C85.0615 98.7758 84.3594 99.0516 84.0486 99.2125L84.1292 99.5457C85.488 99.2488 86.8641 99.0378 88.2495 98.9137C89.8608 98.7529 91.1383 98.6724 92.0936 98.6724H96.5246V103.269H78.1099C78.1099 103.119 78.1099 102.982 78.1099 102.832C78.1099 102.683 78.1099 102.522 78.1099 102.372C78.0979 102.181 78.0979 101.989 78.1099 101.798V101.143C78.0814 100.01 78.4939 98.9103 79.2608 98.0749C80.0506 97.2264 80.9861 96.526 82.0231 96.0065C83.3339 95.367 84.6786 94.7992 86.0513 94.3058L86.949 93.9381L88.0999 93.5589C88.7874 93.3338 89.4568 93.0573 90.1025 92.7316C90.583 92.4593 90.9807 92.0622 91.2534 91.5825C91.5908 90.9595 91.7501 90.2559 91.7138 89.5486C91.7526 89.1213 91.6906 88.6908 91.5327 88.2917C91.3748 87.8926 91.1254 87.536 90.8045 87.2505C90.0324 86.741 89.1158 86.4951 88.192 86.5495C87.2049 86.5007 86.2219 86.7064 85.3377 87.147C84.9958 87.3563 84.7021 87.6356 84.476 87.9663C84.2498 88.2971 84.0964 88.6718 84.0256 89.066L77.9488 88.9856ZM99.0682 92.7776C98.9985 90.6713 99.3548 88.5727 100.116 86.6069C100.744 85.0837 101.878 83.8222 103.327 83.0333C105.049 82.2012 106.951 81.8065 108.862 81.8842C110.778 81.8102 112.682 82.2047 114.41 83.0333C115.864 83.8154 116.999 85.0791 117.621 86.6069C119.017 90.6065 119.017 94.9601 117.621 98.9597C117 100.491 115.865 101.758 114.41 102.545C112.684 103.379 110.778 103.774 108.862 103.694C106.95 103.776 105.047 103.382 103.327 102.545C101.877 101.752 100.744 100.486 100.116 98.9597C99.3469 96.9758 98.9867 94.8576 99.0566 92.7316L99.0682 92.7776ZM104.754 92.7776C104.719 94.0911 104.85 95.4038 105.145 96.6845C105.321 97.4869 105.773 98.2025 106.422 98.7069C107.173 99.1073 108.011 99.3167 108.862 99.3167C109.714 99.3167 110.552 99.1073 111.302 98.7069C111.948 98.2013 112.396 97.4857 112.568 96.6845C113.09 94.1021 113.09 91.4416 112.568 88.8592C112.398 88.0603 111.95 87.3477 111.302 86.8483C110.554 86.4409 109.715 86.2275 108.862 86.2275C108.01 86.2275 107.171 86.4409 106.422 86.8483C105.771 87.3458 105.318 88.0586 105.145 88.8592C104.85 90.1283 104.715 91.4291 104.742 92.7316L104.754 92.7776ZM120.464 88.9856C120.639 87.96 121.018 86.9797 121.577 86.1018C122.136 85.2238 122.865 84.4659 123.721 83.8721C125.782 82.5758 128.194 81.9496 130.626 82.0795C133.757 82.0795 136.078 82.7038 137.589 83.9525C138.366 84.616 138.977 85.4499 139.377 86.3889C139.776 87.3279 139.952 88.3465 139.891 89.3648C139.947 90.627 139.686 91.8832 139.132 93.0189C138.627 93.922 137.887 94.6723 136.991 95.1906C135.781 95.8596 134.509 96.41 133.193 96.8339L132.606 97.0177L132.019 97.2246L128.808 98.3736C127.657 98.7758 126.955 99.0516 126.633 99.2125L126.725 99.5457C128.083 99.2488 129.46 99.0378 130.845 98.9137C132.445 98.7529 133.722 98.6724 134.689 98.6724H139.109V103.269H120.694C120.694 103.119 120.694 102.982 120.694 102.832C120.694 102.683 120.694 102.522 120.694 102.372C120.694 102.223 120.694 102.005 120.694 101.798V101.143C120.669 100.011 121.081 98.9122 121.845 98.0749C122.639 97.2261 123.578 96.5257 124.618 96.0065C125.924 95.3647 127.265 94.7969 128.635 94.3058L129.533 93.9381L130.684 93.5589C131.37 93.3295 132.039 93.0531 132.686 92.7316C133.168 92.4607 133.566 92.0633 133.837 91.5825C134.179 90.9607 134.342 90.257 134.309 89.5486C134.345 89.1215 134.282 88.6918 134.124 88.2931C133.967 87.8945 133.719 87.5376 133.4 87.2505C132.624 86.7394 131.704 86.4934 130.776 86.5495C129.793 86.5026 128.814 86.7084 127.933 87.147C127.59 87.3546 127.295 87.6334 127.069 87.9644C126.842 88.2955 126.69 88.6711 126.621 89.066L120.464 88.9856ZM151.803 103.648C149.301 103.778 146.81 103.226 144.598 102.051C143.687 101.443 142.922 100.641 142.357 99.7036C141.792 98.766 141.441 97.7155 141.33 96.627H147.338C147.384 97.0352 147.532 97.4253 147.77 97.7608C148.007 98.0963 148.326 98.3664 148.696 98.546C149.673 98.9779 150.735 99.1823 151.803 99.1435C152.748 99.2032 153.689 98.9705 154.496 98.4771C154.802 98.2772 155.05 98.0017 155.218 97.6775C155.385 97.3534 155.466 96.9914 155.452 96.627C155.491 96.2672 155.427 95.9037 155.269 95.5784C155.11 95.2531 154.862 94.9792 154.554 94.7885C153.627 94.4007 152.622 94.2316 151.619 94.2944H148.477L149.49 90.6288H152.287C153.044 90.6759 153.798 90.4829 154.439 90.0772C154.691 89.8771 154.891 89.6188 155.021 89.3246C155.152 89.0304 155.208 88.709 155.187 88.388C155.204 88.0413 155.138 87.6955 154.994 87.3796C154.85 87.0637 154.632 86.7869 154.358 86.5725C153.619 86.0905 152.741 85.8644 151.861 85.929C150.838 85.8615 149.816 86.0846 148.914 86.5725C148.272 87.0008 147.819 87.6589 147.648 88.411H141.894C142.058 87.4167 142.428 86.4675 142.981 85.6245C143.534 84.7815 144.257 84.0633 145.105 83.5159C147.183 82.3623 149.543 81.813 151.918 81.9301C154.238 81.7783 156.551 82.3225 158.559 83.4929C159.273 83.9687 159.854 84.6183 160.246 85.3803C160.639 86.1422 160.831 86.9915 160.803 87.848C160.847 88.7454 160.579 89.6304 160.044 90.353C159.449 91.0574 158.679 91.5926 157.811 91.9043V92.203C158.89 92.4713 159.822 93.1468 160.412 94.0875C160.972 95.0042 161.263 96.0591 161.252 97.1326C161.281 98.0697 161.072 98.9988 160.643 99.8328C160.214 100.667 159.58 101.379 158.801 101.901C156.701 103.187 154.249 103.782 151.792 103.602L151.803 103.648Z" fill="white"/>
</svg>
