<svg width="240" height="293" viewBox="0 0 240 293" fill="none" xmlns="http://www.w3.org/2000/svg">
<path d="M265.665 269.093C175.343 168.226 64.6563 168.226 -25.6451 269.093C-25.6451 187.447 -25.6451 105.801 -25.6451 24.1135C64.6563 124.98 175.343 124.98 265.665 24.1135C265.665 105.801 265.665 187.447 265.665 269.093Z" fill="#0077FF"/>
<path d="M266 224.984C175.636 160.423 64.7818 160.341 -25.6451 224.738C-25.6451 221.452 -25.6451 218.208 -25.6451 214.922C64.7818 158.575 175.636 158.657 266 215.128C266 218.413 266 221.699 266 224.984Z" fill="#0077FF"/>
<path d="M265.972 243.031C175.602 163.788 64.7419 163.688 -25.6902 242.729C-25.6902 238.696 -25.6902 234.714 -25.6902 230.681C64.7419 161.52 175.602 161.621 265.972 230.933C265.972 234.966 265.972 238.998 265.972 243.031Z" fill="#811AC7"/>
<path d="M266 207.9C175.636 157.384 64.7818 157.343 -25.6451 207.694C-25.6451 206.421 -25.6451 205.189 -25.6451 203.916C64.7818 156.645 175.636 156.727 266 204.121C266 205.353 266 206.626 266 207.9Z" fill="#FF3971"/>
<path d="M265.972 222.058C175.602 159.945 64.7419 159.894 -25.6902 221.806C-25.6902 220.24 -25.6902 218.725 -25.6902 217.16C64.7419 159.036 175.602 159.137 265.972 217.412C265.972 218.927 265.972 220.493 265.972 222.058Z" fill="#0077FF"/>
<path d="M266 265.109C175.636 167.446 64.7818 167.323 -25.6451 264.74C-25.6451 263.466 -25.6451 262.234 -25.6451 260.961C64.7818 166.666 175.636 166.789 266 261.29C266 262.563 266 263.836 266 265.109Z" fill="#FF3971"/>
<path d="M265.972 292.379C175.602 172.348 64.7419 172.196 -25.6902 291.924C-25.6902 290.36 -25.6902 288.845 -25.6902 287.281C64.7419 171.389 175.602 171.54 265.972 287.684C265.972 289.249 265.972 290.814 265.972 292.379Z" fill="#0077FF"/>
<path d="M266 185.357C175.636 153.446 64.7818 153.405 -25.6451 185.234C-25.6451 179.812 -25.6451 174.391 -25.6451 168.929C64.7818 150.53 175.636 150.571 266 169.011C266 174.473 266 179.895 266 185.357Z" fill="#FF3971"/>
<path d="M265.972 194.305C175.602 155.037 64.7419 154.986 -25.6902 194.153C-25.6902 187.482 -25.6902 180.811 -25.6902 174.09C64.7419 151.448 175.602 151.499 265.972 174.191C265.972 180.912 265.972 187.583 265.972 194.305Z" fill="#0077FF"/>
<path d="M266 161.783C175.636 149.256 64.7818 149.256 -25.6451 161.742C-25.6451 160.304 -25.6451 158.867 -25.6451 157.47C64.7818 148.517 175.636 148.517 266 157.47C266 158.908 266 160.345 266 161.783Z" fill="#FF3971"/>
<path d="M265.972 165.313C175.602 149.898 64.7419 149.898 -25.6902 165.263C-25.6902 163.494 -25.6902 161.725 -25.6902 160.006C64.7419 148.988 175.602 148.988 265.972 160.006C265.972 161.775 265.972 163.544 265.972 165.313Z" fill="#0077FF"/>
<path d="M266 125.313C175.636 142.891 64.7818 142.891 -25.6451 125.395C-25.6451 121.945 -25.6451 118.496 -25.6451 115.087C64.7818 141.084 175.636 141.043 266 114.964C266 118.413 266 121.863 266 125.313Z" fill="#FF3971"/>
<path d="M265.972 120.538C175.602 142.183 64.7419 142.183 -25.6902 120.639C-25.6902 116.391 -25.6902 112.142 -25.6902 107.945C64.7419 139.958 175.602 139.907 265.972 107.793C265.972 112.041 265.972 116.289 265.972 120.538Z" fill="#17D685"/>
<path d="M266 94.5931C175.636 137.47 64.7818 137.511 -25.6451 94.7574C-25.6451 87.7345 -25.6451 80.7116 -25.6451 73.6477C64.7818 133.814 175.636 133.732 266 73.4423C266 80.5063 266 87.5291 266 94.5931Z" fill="#FF3971"/>
<path d="M265.972 82.7356C175.602 135.414 64.7419 135.465 -25.6902 82.9374C-25.6902 74.309 -25.6902 65.6806 -25.6902 57.0017C64.7419 130.924 175.602 130.823 265.972 56.7494C265.972 65.4283 265.972 74.0567 265.972 82.7356Z" fill="#17D685"/>
<path d="M266 68.925C175.636 132.952 64.7818 133.034 -25.6451 69.1715C-25.6451 67.159 -25.6451 65.1466 -25.6451 63.1342C64.7818 131.967 175.636 131.885 266 62.8467C266 64.8591 266 66.9126 266 68.925Z" fill="#FF3971"/>
<path d="M265.972 51.2545C175.602 129.828 64.7419 129.929 -25.6902 51.5569C-25.6902 49.0873 -25.6902 46.6177 -25.6902 44.1481C64.7419 128.618 175.602 128.517 265.972 43.7953C265.972 46.2649 265.972 48.7849 265.972 51.2545Z" fill="#0077FF"/>
<path d="M266 40.5866C175.636 127.941 64.7818 128.065 -25.6451 40.9152C-25.6451 40.3402 -25.6451 39.7652 -25.6451 39.1492C64.7818 127.777 175.636 127.654 266 38.8617C266 39.4367 266 40.0116 266 40.5866Z" fill="#FF3971"/>
<path d="M265.972 16.3086C175.602 123.751 64.7419 123.903 -25.6902 16.7127C-25.6902 16.0055 -25.6902 15.2983 -25.6902 14.5406C64.7419 123.549 175.602 123.398 265.972 14.187C265.972 14.8942 265.972 15.6014 265.972 16.3086Z" fill="#0077FF"/>
<path d="M266 31.428C175.636 126.381 64.7818 126.504 -25.6451 31.7976C-25.6451 30.4013 -25.6451 29.046 -25.6451 27.6496C64.7818 125.723 175.636 125.6 266 27.2389C266 28.6353 266 30.0316 266 31.428Z" fill="#FF3971"/>
<path d="M265.972 5.15118C175.602 121.911 64.7419 122.063 -25.6902 5.6057C-25.6902 3.88864 -25.6902 2.22207 -25.6902 0.505013C64.7419 121.103 175.602 120.951 265.972 0C265.972 1.71706 265.972 3.43412 265.972 5.15118Z" fill="#0077FF"/>
<path d="M266 112.91C175.636 140.673 64.7818 140.714 -25.6451 113.033C-25.6451 112.705 -25.6451 112.335 -25.6451 112.007C64.7818 140.55 175.636 140.509 266 111.883C266 112.212 266 112.582 266 112.91Z" fill="#FF3971"/>
<path d="M265.972 105.351C175.602 139.399 64.7419 139.449 -25.6902 105.502C-25.6902 105.099 -25.6902 104.646 -25.6902 104.243C64.7419 139.248 175.602 139.197 265.972 104.092C265.972 104.495 265.972 104.948 265.972 105.351Z" fill="#17D685"/>
<path d="M266 137.347C175.636 144.986 64.7818 144.986 -25.6451 137.388C-25.6451 136.648 -25.6451 135.95 -25.6451 135.211C64.7818 144.616 175.636 144.616 266 135.17C266 135.909 266 136.607 266 137.347Z" fill="#FF3971"/>
<path d="M265.972 135.294C175.602 144.675 64.7419 144.675 -25.6902 135.344C-25.6902 134.436 -25.6902 133.579 -25.6902 132.671C64.7419 144.221 175.602 144.221 265.972 132.621C265.972 133.528 265.972 134.386 265.972 135.294Z" fill="#0077FF"/>
<path d="M266 189.587C175.636 154.185 64.7818 154.144 -25.6451 189.464C-25.6451 188.724 -25.6451 188.026 -25.6451 187.287C64.7818 153.733 175.636 153.774 266 187.41C266 188.108 266 188.848 266 189.587Z" fill="#FF3971"/>
<path d="M265.972 199.544C175.602 155.964 64.7419 155.913 -25.6902 199.392C-25.6902 198.482 -25.6902 197.623 -25.6902 196.713C64.7419 155.408 175.602 155.458 265.972 196.865C265.972 197.724 265.972 198.634 265.972 199.544Z" fill="#17D685"/>
<path d="M-25.9797 56.7683C64.3845 130.817 175.238 130.899 265.665 57.0147C265.665 59.7253 265.665 62.3948 265.665 65.1054C175.238 132.336 64.3845 132.254 -25.9797 64.859C-25.9797 62.1484 -25.9797 59.4378 -25.9797 56.7683Z" fill="#811AC7"/>
<path d="M-25.9797 70.7726C64.3845 133.28 175.238 133.363 265.665 71.019C265.665 72.0458 265.665 73.0725 265.665 74.1403C175.238 133.896 64.3845 133.814 -25.9797 73.8939C-25.9797 72.8672 -25.9797 71.8404 -25.9797 70.7726Z" fill="#811AC7"/>
<path d="M-25.9797 23.7484C64.3845 124.985 175.238 125.149 265.665 24.118C265.665 25.1447 265.665 26.1715 265.665 27.2393C175.238 125.683 64.3845 125.56 -25.9797 26.8697C-25.9797 25.8429 -25.9797 24.7751 -25.9797 23.7484Z" fill="#811AC7"/>
<path d="M-25.9797 89.3363C64.3845 136.525 175.238 136.607 265.665 89.5006C265.665 93.9772 265.665 98.4127 265.665 102.889C175.238 138.948 64.3845 138.866 -25.9797 102.766C-25.9797 98.2895 -25.9797 93.8129 -25.9797 89.3363Z" fill="#0077FF"/>
<path d="M-25.9797 108.721C64.3845 139.975 175.238 140.016 265.665 108.845C265.665 110.036 265.665 111.186 265.665 112.377C175.238 140.632 64.3845 140.591 -25.9797 112.253C-25.9797 111.062 -25.9797 109.912 -25.9797 108.721Z" fill="#811AC7"/>
<path d="M-25.7705 138.743C64.6773 145.232 175.594 145.232 266 138.743C266 141.577 266 144.369 266 147.203C175.594 146.71 64.6773 146.71 -25.7705 147.203C-25.7705 144.369 -25.7705 141.577 -25.7705 138.743Z" fill="#811AC7"/>
<path d="M-25.7699 163.96C64.5316 149.708 175.218 149.667 265.541 163.919C265.541 169.668 265.541 175.459 265.541 181.209C175.218 152.707 64.5316 152.748 -25.7699 181.291C-25.7699 175.5 -25.7699 169.709 -25.7699 163.96Z" fill="#17D685"/>
<path d="M-25.7699 185.069C64.5316 153.405 175.218 153.363 265.541 184.987C265.541 186.63 265.541 188.273 265.541 189.915C175.218 154.226 64.5316 154.267 -25.7699 189.997C-25.7699 188.355 -25.7699 186.712 -25.7699 185.069Z" fill="#811AC7"/>
<path d="M-25.7705 208.228C64.6773 157.383 175.594 157.425 266 208.351C266 208.844 266 209.336 266 209.829C175.594 157.753 64.6773 157.712 -25.7705 209.706C-25.7705 209.172 -25.7705 208.679 -25.7705 208.228Z" fill="#811AC7"/>
<path d="M-25.7699 215.785C64.5316 158.821 175.218 158.78 265.541 215.62C265.541 216.77 265.541 217.961 265.541 219.111C175.218 159.396 64.5316 159.437 -25.7699 219.276C-25.7699 218.126 -25.7699 216.935 -25.7699 215.785Z" fill="#0077FF"/>
<path d="M-25.7699 148.928C64.5316 146.997 175.218 146.997 265.541 148.928C265.541 149.215 265.541 149.503 265.541 149.79C175.218 147.162 64.5316 147.162 -25.7699 149.79C-25.7699 149.544 -25.7699 149.215 -25.7699 148.928Z" fill="#811AC7"/>
<path d="M-25.9797 128.804C64.3845 143.466 175.238 143.507 265.665 128.845C265.665 129.461 265.665 130.036 265.665 130.652C175.238 143.794 64.3845 143.794 -25.9797 130.611C-25.9797 129.995 -25.9797 129.42 -25.9797 128.804Z" fill="#811AC7"/>
<path d="M-25.9797 85.8453C64.3845 135.909 175.238 135.991 265.665 86.0507C265.665 86.6667 265.665 87.2417 265.665 87.8577C175.238 136.32 64.3845 136.279 -25.9797 87.6935C-25.9797 87.0364 -25.9797 86.4614 -25.9797 85.8453Z" fill="#811AC7"/>
</svg>
