<svg width="178" height="14" viewBox="0 0 178 14" fill="none" xmlns="http://www.w3.org/2000/svg">
<path d="M0.290547 13.415H1.85055L1.89555 11H10.0705V13.415H11.6455L11.7055 11.15C11.7205 10.58 11.7505 10.16 11.7805 9.53H10.3855V0.53H2.31555C2.30055 2.045 2.25555 4.415 2.19555 5.705C2.07555 8 1.89555 9.545 0.560547 9.545H0.290547V13.415ZM3.05055 9.53C3.56055 8.915 3.77055 7.205 3.81555 5.72C3.87555 4.445 3.92055 3.125 3.96555 1.97H8.64555V9.53H3.05055ZM18.5594 11.21C22.3994 11.21 24.5594 9.605 24.5594 5.78C24.5594 1.955 22.3994 0.364999 18.5594 0.364999C14.7194 0.364999 12.5744 1.955 12.5744 5.78C12.5744 9.605 14.7194 11.21 18.5594 11.21ZM18.5594 9.68C15.3344 9.68 14.4344 8.225 14.4344 5.78C14.4344 3.335 15.3344 1.895 18.5594 1.895C21.7994 1.895 22.6994 3.335 22.6994 5.78C22.6994 8.225 21.7994 9.68 18.5594 9.68ZM30.5425 0.53V11H32.2825V2.03H38.1625V11H39.9025V0.53H30.5425ZM47.6699 11.21C51.5099 11.21 53.6699 9.605 53.6699 5.78C53.6699 1.955 51.5099 0.364999 47.6699 0.364999C43.8299 0.364999 41.6849 1.955 41.6849 5.78C41.6849 9.605 43.8299 11.21 47.6699 11.21ZM47.6699 9.68C44.4449 9.68 43.5449 8.225 43.5449 5.78C43.5449 3.335 44.4449 1.895 47.6699 1.895C50.9099 1.895 51.8099 3.335 51.8099 5.78C51.8099 8.225 50.9099 9.68 47.6699 9.68ZM63.0728 5.45V5.33C64.0178 5 64.4978 4.13 64.4978 3.14C64.4978 1.325 63.4478 0.53 61.0178 0.53H55.4378V11H60.8378C63.9428 11 64.7378 9.74 64.7378 7.91C64.7378 6.725 64.1378 5.81 63.0728 5.45ZM61.2128 1.94C62.3528 1.94 62.7578 2.435 62.7578 3.395C62.7578 4.34 62.3528 4.835 61.2128 4.835H57.1778V1.94H61.2128ZM61.1828 9.575H57.1778V6.17H61.1528C62.5328 6.17 62.9528 6.83 62.9528 7.865C62.9528 8.81 62.6228 9.575 61.1828 9.575ZM72.2071 4.34H68.3071V0.53H66.5671V11H71.9221C74.4871 11 75.9271 10.145 75.9271 7.67C75.9271 5.375 74.5771 4.34 72.2071 4.34ZM77.3071 0.53V11H79.0471V0.53H77.3071ZM72.0871 9.56H68.3071V5.795H72.0871C73.6921 5.795 74.1571 6.5 74.1571 7.67C74.1571 8.84 73.6921 9.56 72.0871 9.56ZM92.44 0.53V9.515H88.66V0.53H86.98V9.515H83.2V0.53H81.505V11H94.12V0.53H92.44ZM104.404 2.075V0.53H96.5894V11H104.404V9.455H98.3294V6.41H104.284V4.94H98.3294V2.075H104.404ZM114.139 0.53V4.91H108.184V0.53H106.444V11H108.184V6.41H114.139V11H115.864V0.53H114.139ZM118.321 11H121.501L124.861 4.025C125.176 3.365 125.656 2.285 125.971 1.55H126.391V11H128.116V0.53H124.936L121.696 7.415C121.396 8.075 120.766 9.35 120.466 9.98H120.046V0.53H118.321V11ZM133.758 0.53C131.373 0.53 130.038 1.565 130.038 3.86C130.038 5.945 131.118 6.86 133.068 7.1L130.473 11H132.423L134.883 7.16H137.703V11H139.443V0.53H133.758ZM133.863 5.735C132.258 5.735 131.778 5.03 131.778 3.86C131.778 2.69 132.258 1.97 133.863 1.97H137.703V5.735H133.863ZM155.383 9.515V0.53H153.643V9.515H147.853V0.53H146.113V11H154.918V13.415H156.478L156.538 11.135C156.568 9.965 156.583 9.95 156.613 9.515H155.383ZM166.053 2.075V0.53H158.238V11H166.053V9.455H159.978V6.41H165.933V4.94H159.978V2.075H166.053ZM175.788 0.53V4.91H169.833V0.53H168.093V11H169.833V6.41H175.788V11H177.513V0.53H175.788Z" fill="white"/>
</svg>
