<svg width="30" height="30" viewBox="0 0 30 30" fill="none" xmlns="http://www.w3.org/2000/svg">
<path fill-rule="evenodd" clip-rule="evenodd" d="M2.10883 2.10883C9.53674e-07 4.21766 9.53674e-07 7.61175 9.53674e-07 14.4V15.6C9.53674e-07 22.3883 9.53674e-07 25.7823 2.10883 27.8912C4.21766 30 7.61175 30 14.4 30H15.6C22.3883 30 25.7823 30 27.8912 27.8912C30 25.7823 30 22.3883 30 15.6V14.4C30 7.61175 30 4.21766 27.8912 2.10883C25.7823 0 22.3883 0 15.6 0H14.4C7.61175 0 4.21766 0 2.10883 2.10883ZM5.06296 9.1256C5.22546 16.9256 9.12541 21.6131 15.9629 21.6131H16.3505V17.1506C18.863 17.4006 20.7628 19.2381 21.5253 21.6131H25.0755C24.1005 18.0631 21.5378 16.1006 19.9378 15.3506C21.5378 14.4256 23.7878 12.1756 24.3253 9.1256H21.1003C20.4003 11.6006 18.3255 13.8506 16.3505 14.0631V9.1256H13.1254V17.7756C11.1254 17.2756 8.60047 14.8506 8.48797 9.1256H5.06296Z" fill="white"/>
<path d="M15.9606 21.6132C9.12309 21.6132 5.22315 16.9257 5.06065 9.12566H8.48565C8.59815 14.8507 11.1231 17.2757 13.1231 17.7757V9.12566H16.3482V14.0632C18.3232 13.8507 20.398 11.6007 21.098 9.12566H24.323C23.7855 12.1757 21.5355 14.4257 19.9355 15.3507C21.5355 16.1007 24.0982 18.0632 25.0732 21.6132H21.523C20.7605 19.2382 18.8607 17.4007 16.3482 17.1507V21.6132H15.9606Z" fill="#0077FF"/>
</svg>
